# xmcd CD database file
#
# Track frame offsets:
#	150
#	27374
#	49840
#	88018
#	111169
#	128933
#	158102
#	189527
#	216233
#	244358
#	277744
#	297896
#
# Disc length: 4787 seconds
#
# Revision: 1
# Processed by: cddbd v1.5.2PL0 Copyright (c) Steve Scherf et al.
# Submitted via: CDex 1.79
#
DISCID=af12b10c
DTITLE=Bob Marley and The Wailers - Burnin' (Live At Leeds, November 23, 1973) (Remastered) Deluxe Edition) (2 of 2)
DYEAR=1973
DGENRE=Blues
TTITLE0=Duppy Conqueror (Previously Unrelased Live Recordings)
TTITLE1=Slave Driver (Previously Unrelased Live Recordings)
TTITLE2=Burnin' And Lootin' (Previously Unrelased Live Recordings)
TTITLE3=Can't Blame The Youth (Previously Unrelased Live Recordings)
TTITLE4=Stop That Train (Previously Unrelased Live Recordings)
TTITLE5=Midnight Ravers (Previously Unrelased Live Recordings)
TTITLE6=No More Trouble (Previously Unrelased Live Recordings)
TTITLE7=Kinky Reggae (Previously Unrelased Live Recordings)
TTITLE8=Get Up, Stand Up (Previously Unrelased Live Recordings)
TTITLE9=Stir It Up (Previously Unrelased Live Recordings)
TTITLE10=Put It On (Previously Unrelased Live Recordings)
TTITLE11=Lively Up Yourself (Previously Unrelased Live Recordings)
EXTD=YEAR: 1973
EXTT0=
EXTT1=
EXTT2=
EXTT3=
EXTT4=
EXTT5=
EXTT6=
EXTT7=
EXTT8=
EXTT9=
EXTT10=
EXTT11=
PLAYORDER=
